<svg width="62" height="53" viewBox="0 0 62 53" fill="none" xmlns="http://www.w3.org/2000/svg">
<path d="M50.375 11.5938H43.6616L40.3605 7.36203C40.1837 7.13544 39.9442 6.94963 39.6633 6.82107C39.3823 6.69251 39.0687 6.62516 38.75 6.625H23.25C22.9313 6.62516 22.6177 6.69251 22.3367 6.82107C22.0558 6.94963 21.8163 7.13544 21.6395 7.36203L18.336 11.5938H11.625C10.0834 11.5938 8.605 12.1172 7.51494 13.0491C6.42489 13.9809 5.8125 15.2447 5.8125 16.5625V39.75C5.8125 41.0678 6.42489 42.3316 7.51494 43.2634C8.605 44.1953 10.0834 44.7188 11.625 44.7188H50.375C51.9166 44.7188 53.395 44.1953 54.4851 43.2634C55.5751 42.3316 56.1875 41.0678 56.1875 39.75V16.5625C56.1875 15.2447 55.5751 13.9809 54.4851 13.0491C53.395 12.1172 51.9166 11.5938 50.375 11.5938ZM52.3125 39.75C52.3125 40.1893 52.1084 40.6105 51.745 40.9211C51.3817 41.2318 50.8889 41.4062 50.375 41.4062H11.625C11.1111 41.4062 10.6183 41.2318 10.255 40.9211C9.89163 40.6105 9.6875 40.1893 9.6875 39.75V16.5625C9.6875 16.1232 9.89163 15.702 10.255 15.3914C10.6183 15.0807 11.1111 14.9062 11.625 14.9062H19.375C19.6941 14.9064 20.0082 14.8392 20.2896 14.7107C20.571 14.5821 20.8109 14.3961 20.988 14.1692L24.2866 9.9375H37.711L41.012 14.1692C41.1891 14.3961 41.429 14.5821 41.7104 14.7107C41.9918 14.8392 42.3059 14.9064 42.625 14.9062H50.375C50.8889 14.9062 51.3817 15.0807 51.745 15.3914C52.1084 15.702 52.3125 16.1232 52.3125 16.5625V39.75ZM31 18.2188C28.8924 18.2188 26.8321 18.753 25.0797 19.754C23.3273 20.7549 21.9615 22.1776 21.1549 23.8421C20.3484 25.5066 20.1373 27.3382 20.5485 29.1053C20.9597 30.8723 21.9746 32.4955 23.4649 33.7694C24.9552 35.0434 26.854 35.911 28.9211 36.2625C30.9882 36.614 33.1308 36.4336 35.078 35.7441C37.0251 35.0546 38.6894 33.8871 39.8603 32.389C41.0313 30.891 41.6562 29.1298 41.6562 27.3281C41.653 24.913 40.5293 22.5976 38.5316 20.8898C36.5338 19.1821 33.8252 18.2215 31 18.2188ZM31 33.125C29.6588 33.125 28.3477 32.785 27.2325 32.148C26.1174 31.5111 25.2482 30.6057 24.7349 29.5465C24.2217 28.4873 24.0874 27.3217 24.349 26.1972C24.6107 25.0727 25.2566 24.0398 26.2049 23.2291C27.1533 22.4184 28.3616 21.8663 29.677 21.6426C30.9925 21.419 32.356 21.5338 33.5951 21.9725C34.8342 22.4113 35.8933 23.1543 36.6384 24.1076C37.3835 25.0608 37.7812 26.1816 37.7812 27.3281C37.7812 28.8656 37.0668 30.34 35.7951 31.4271C34.5233 32.5143 32.7985 33.125 31 33.125Z" fill="black"/>
</svg>
